PathFileType	4	(X/Y/Z)	C:\Users\Basilio\Documents\Thesis Gigler\squatting_fais\c3dfiles\054\SLS_front_pre4\markers_experimental.trc
DataRate	CameraRate	NumFrames	NumMarkers	Units	OrigDataRate	OrigDataStartFrame	OrigNumFrames
200.000000	200.000000	4	61	mm	200.000000	888	1421
Frame#	Time	FHD			LBHD			RBHD			C7			T10			CLAV			LSHO			LUUPA			LMUPA			LDUPA			LLEP			LMEP			LRAD			LUL			LRFIN			RSHO			RUPA1			RMUPA			RDUPA			RLEP			RMEP			RRAD			RUL			RUFIN			LASI			RASI			USACR			LSACR			RSACR			LTHI1			LTHI2			LTHI3			LTHI4			LLFC			LMFC			LTIB1			LTIB2			LTIB3			LTIB4			LLMAL			LMMAL			LHEE			LMT1			LMT2			LMT5			RTHI			RTHI2			RTHI3			RTHI4			RLFC			RMFC			RTIB1			RTIB2			RTIB3			RTIB4			RLMAL			RMMAL			RHEE			RMT1			RMT2			RMT5			
		X1	Y1	Z1	X2	Y2	Z2	X3	Y3	Z3	X4	Y4	Z4	X5	Y5	Z5	X6	Y6	Z6	X7	Y7	Z7	X8	Y8	Z8	X9	Y9	Z9	X10	Y10	Z10	X11	Y11	Z11	X12	Y12	Z12	X13	Y13	Z13	X14	Y14	Z14	X15	Y15	Z15	X16	Y16	Z16	X17	Y17	Z17	X18	Y18	Z18	X19	Y19	Z19	X20	Y20	Z20	X21	Y21	Z21	X22	Y22	Z22	X23	Y23	Z23	X24	Y24	Z24	X25	Y25	Z25	X26	Y26	Z26	X27	Y27	Z27	X28	Y28	Z28	X29	Y29	Z29	X30	Y30	Z30	X31	Y31	Z31	X32	Y32	Z32	X33	Y33	Z33	X34	Y34	Z34	X35	Y35	Z35	X36	Y36	Z36	X37	Y37	Z37	X38	Y38	Z38	X39	Y39	Z39	X40	Y40	Z40	X41	Y41	Z41	X42	Y42	Z42	X43	Y43	Z43	X44	Y44	Z44	X45	Y45	Z45	X46	Y46	Z46	X47	Y47	Z47	X48	Y48	Z48	X49	Y49	Z49	X50	Y50	Z50	X51	Y51	Z51	X52	Y52	Z52	X53	Y53	Z53	X54	Y54	Z54	X55	Y55	Z55	X56	Y56	Z56	X57	Y57	Z57	X58	Y58	Z58	X59	Y59	Z59	X60	Y60	Z60	X61	Y61	Z61	

889	4.44	-217.0948181152344	1532.927001953125	-1078.979125976563	-374.2811889648438	1470.906005859375	-1151.9833984375	-393.3010559082032	1469.017578125	-1012.50732421875	-421.8592224121095	1321.02294921875	-1069.214111328125	-533.1559448242189	1011.667846679688	-1065.16748046875	-288.5399169921876	1242.221801757813	-1078.077514648438	-344.0110778808594	1321.6533203125	-1216.610961914063	-196.5169067382813	1231.869384765625	-1353.610595703125	-166.2935028076172	1267.672119140625	-1337.880737304688	-128.4158630371094	1231.550659179688	-1367.908325195313	-71.30142211914064	1240.4462890625	-1366.936889648438	-62.55030822753908	1169.593383789063	-1333.039428710938	186.9979248046875	1268.924926757813	-1304.51953125	201.1125946044922	1251.6513671875	-1379.046020507813	274.7579956054688	1301.889770507813	-1323.9052734375	-337.4315185546876	1317.11962890625	-936.2984008789065	-181.7453308105469	1225.400024414063	-804.0786743164065	-149.3877105712891	1257.7919921875	-818.2278442382815	-112.9460372924805	1215.923217773438	-792.310729980469	-67.88004302978517	1214.8046875	-795.1964111328127	-66.14186859130861	1154.61328125	-840.0305175781252	186.953369140625	1290.129516601563	-898.4274902343752	198.3437042236329	1250.37548828125	-829.746032714844	263.4400939941407	1322.801147460938	-886.5155029296877	-377.2568969726563	824.7672119140627	-1167.68408203125	-377.8233032226563	859.8128662109377	-920.9287109375002	-557.2396850585939	909.396911621094	-1054.150146484375	-562.2714233398439	873.8054199218752	-1079.16943359375	-563.4279174804689	879.9737548828127	-1022.253356933594	-318.7726745605469	610.4727783203126	-1230.455444335938	-237.0673370361329	584.5593261718751	-1225.637451171875	-208.8290557861329	622.2915039062501	-1220.729614257813	-214.9366302490235	530.7486572265626	-1208.95068359375	-114.7420043945313	439.7853393554689	-1177.563842773438	-89.7449188232422	468.6270446777345	-1039.913208007813	-134.9334869384766	299.9035034179688	-1093.046508789063	-197.9815826416016	268.6454772949219	-1147.959106445313	-169.0477142333985	257.0341491699219	-1116.986083984375	-213.1928405761719	202.2374114990235	-1070.910278320313	-332.0775756835938	109.0522079467774	-1100.24951171875	-299.0921020507813	132.8166046142578	-1009.10888671875	-406.4110412597657	104.711051940918	-1038.318725585938	-197.4223175048829	55.72849655151369	-1016.695922851563	-188.6034240722657	54.4343948364258	-1065.935180664063	-241.8992309570313	39.91092681884766	-1116.699462890625	-236.2798919677735	646.4902954101564	-838.137634277344	-170.7561340332032	651.8981933593751	-850.2671508789065	-155.7793884277344	679.9996337890626	-860.222595214844	-119.5825729370117	587.8178100585939	-867.0887451171877	-57.95089721679689	525.2359008789064	-879.2461547851565	-45.14686584472657	563.9013061523439	-1009.834655761719	49.38973999023439	475.4290771484376	-898.4163208007815	40.70670700073243	373.4819030761719	-869.2559814453127	79.90087890625001	395.2454528808595	-880.5007324218752	118.6528854370117	365.2116394042969	-912.3779296875002	175.0890502929688	188.9432678222657	-906.2854003906252	196.4987030029297	225.0626373291016	-990.676452636719	145.7210845947266	128.6087493896485	-968.6091918945315	343.3801269531251	230.8217163085938	-971.8768310546877	341.1627502441407	238.9830780029297	-924.0579223632815	307.7834472656251	196.8860778808594	-876.9299316406252	
890	4.445	-217.8539581298829	1534.786254882813	-1078.6435546875	-374.9225158691407	1472.595336914063	-1151.72802734375	-393.7290649414064	1470.569458007813	-1012.389770507813	-422.2980346679689	1322.621704101563	-1069.067749023438	-533.1649780273439	1013.132873535156	-1065.126586914063	-289.1870727539063	1243.90087890625	-1078.035034179688	-344.3297424316407	1323.026000976563	-1216.4443359375	-197.0550689697266	1233.380981445313	-1353.5205078125	-166.7777557373047	1269.296752929688	-1337.7255859375	-128.7890319824219	1233.234252929688	-1367.83740234375	-71.75301361083986	1242.258544921875	-1366.77978515625	-63.09471511840822	1171.482666015625	-1332.609497070313	186.3734436035157	1270.88427734375	-1304.183471679688	200.2869567871094	1253.81591796875	-1378.697143554688	274.1647949218751	1304.008056640625	-1323.47412109375	-337.7484741210938	1318.926025390625	-936.1578369140627	-182.1788635253907	1227.014282226563	-803.8489990234377	-149.9122314453125	1259.530639648438	-817.9840087890627	-113.3112716674805	1217.676513671875	-792.0093994140627	-68.21909332275392	1216.468994140625	-794.2675781250002	-66.57053375244142	1156.386352539063	-839.7487792968752	186.6197814941407	1291.868530273438	-898.2097167968752	198.0007476806641	1252.081176757813	-829.5310668945315	262.9800720214844	1324.615112304688	-886.222839355469	-377.1577453613282	826.1688232421877	-1167.606811523438	-377.5556945800782	861.4428710937502	-920.9866333007815	-557.1865844726564	910.9732666015627	-1054.20166015625	-563.9169311523439	875.8237304687502	-1078.831420898438	-562.7499389648439	881.4514160156252	-1022.210388183594	-319.0027770996094	611.4718017578126	-1230.392578125	-237.3106384277344	585.5624389648439	-1225.55517578125	-208.9319915771485	623.1383056640626	-1220.714111328125	-215.3649444580079	531.6395874023439	-1208.93701171875	-115.3079299926758	440.195037841797	-1177.134643554688	-90.5077362060547	469.0705566406251	-1039.793579101563	-135.4438018798828	300.1800537109376	-1092.838500976563	-198.4486694335938	268.9021911621094	-1147.807373046875	-169.4636840820313	257.3483276367188	-1116.9423828125	-213.3650817871094	202.7156219482422	-1070.803955078125	-332.1057128906251	109.0184631347657	-1100.17626953125	-299.0974731445313	132.8095397949219	-1009.023986816406	-406.4238281250001	104.6884155273438	-1038.274536132813	-197.4401245117188	55.69919586181642	-1016.697631835938	-188.6044158935547	54.44539642333986	-1065.935302734375	-241.9113311767579	39.92091751098634	-1116.679565429688	-236.2181243896485	647.6605834960939	-838.239929199219	-170.8747863769532	653.1921997070314	-850.2553710937502	-155.9252319335938	681.2244262695314	-860.2083740234377	-119.7341690063477	588.9735107421876	-867.1873779296877	-58.06142807006837	526.1179199218751	-879.271423339844	-45.24448776245118	565.0139160156251	-1009.87890625	49.31611251831056	476.5008544921876	-898.3829345703127	40.67595672607423	374.6285095214844	-869.3056640625002	79.77320861816408	396.2225036621095	-880.3533325195315	118.551986694336	366.1530151367188	-912.1450195312502	174.9982604980469	190.0160675048828	-906.4422607421877	196.1682586669922	226.0010375976563	-990.6840820312502	145.5937652587891	129.6495666503907	-968.6277465820315	343.1583862304688	231.8328399658204	-971.9998779296877	341.1737670898438	240.0902404785157	-924.2269287109377	307.4382324218751	197.9112243652344	-877.2476806640627	
891	4.45	-218.3204040527344	1536.651611328125	-1078.384399414063	-375.3412780761719	1474.404541015625	-1151.521240234375	-394.4641418457032	1472.148315429688	-1012.301391601563	-422.9471435546876	1324.300415039063	-1068.994750976563	-533.1791381835939	1014.565490722656	-1064.982666015625	-289.2697753906251	1245.632934570313	-1077.851806640625	-344.9319458007813	1324.741088867188	-1216.396240234375	-197.0997161865235	1235.075073242188	-1353.574829101563	-167.3141784667969	1271.19970703125	-1337.49853515625	-129.1471557617188	1235.13720703125	-1367.60302734375	-72.04763031005861	1244.129760742188	-1366.647338867188	-63.80438232421876	1173.420166015625	-1332.69970703125	185.9902801513672	1273.022583007813	-1303.907348632813	200.9382629394532	1255.427490234375	-1378.522338867188	274.1098632812501	1305.822509765625	-1323.106079101563	-338.0637512207032	1320.351318359375	-936.020690917969	-182.7515716552735	1228.768310546875	-803.757751464844	-150.4422302246094	1261.067626953125	-817.876892089844	-113.4967269897461	1219.156982421875	-791.9080200195315	-68.37689208984376	1218.087524414063	-794.3297119140627	-66.73651123046876	1157.95068359375	-839.670349121094	186.1645202636719	1293.678833007813	-897.9239501953127	197.4821014404297	1253.94775390625	-829.1834106445315	262.6870117187501	1326.32568359375	-886.1125488281252	-377.2278747558594	827.7424926757815	-1167.451171875	-377.4407043457032	862.9255981445315	-920.9169921875002	-557.1422729492189	912.458679199219	-1054.09326171875	-562.9716186523439	876.9067993164065	-1078.838134765625	-562.4787597656251	882.8564453125002	-1022.095642089844	-319.0768432617188	612.6472778320314	-1230.330444335938	-237.5887756347657	586.4699707031251	-1225.4697265625	-209.0773315429688	623.9457397460939	-1220.591674804688	-215.2012329101563	532.5246582031251	-1209.08251953125	-115.9370880126953	440.7346191406251	-1177.294677734375	-91.29067993164064	469.4215393066407	-1039.714965820313	-135.7493896484375	300.3082275390626	-1092.80810546875	-198.7422485351563	269.1100158691407	-1147.704956054688	-169.546142578125	257.5655517578126	-1116.859008789063	-213.4770202636719	202.8594512939454	-1070.8212890625	-332.1126708984376	109.0280685424805	-1100.1923828125	-299.1053466796876	132.795654296875	-1009.006469726563	-406.4506225585939	104.6855773925782	-1038.232299804688	-197.4346618652344	55.66979598999025	-1016.698364257813	-188.5941314697266	54.45599365234376	-1065.918823242188	-241.8582000732422	39.95075607299805	-1116.659301757813	-236.1461486816407	649.1136474609376	-838.1378173828127	-170.6423797607422	654.3641967773439	-850.356872558594	-155.6390380859375	682.4831542968751	-860.3359375000002	-119.7367477416992	590.1804199218751	-867.227722167969	-58.07532119750978	527.2918701171876	-879.378845214844	-45.29192352294923	566.0317993164064	-1009.955261230469	49.33226394653322	477.3919982910157	-898.4734497070315	40.55524063110352	375.5434875488282	-869.335388183594	79.73352813720705	397.0286254882814	-880.7337646484377	118.3839569091797	367.2837219238282	-912.252380371094	174.7853698730469	190.9411010742188	-906.4879150390627	196.2488861083985	227.3378601074219	-991.9534912109377	145.2491607666016	130.5636138916016	-968.8182373046877	342.7864990234376	232.8900299072266	-972.1318969726565	340.8601379394532	241.095199584961	-924.2503662109377	307.1960754394532	198.7890930175782	-877.3237915039065	
892	4.455	-218.9933471679688	1538.489501953125	-1078.15771484375	-376.0361633300782	1476.205810546875	-1151.34375	-395.0016479492189	1474.008178710938	-1012.005432128906	-423.4181518554689	1325.90380859375	-1068.801391601563	-533.1572875976564	1016.039306640625	-1064.91943359375	-289.6942749023438	1247.411987304688	-1077.692504882813	-345.4461669921876	1326.486206054688	-1216.374389648438	-197.3820037841797	1236.900634765625	-1353.495849609375	-167.7167053222657	1273.056640625	-1337.34619140625	-129.7149505615235	1236.848754882813	-1367.475708007813	-72.50308227539064	1246.00537109375	-1366.531127929688	-63.62795257568361	1175.281860351563	-1332.303588867188	185.3584594726563	1275.010864257813	-1303.574951171875	199.3008880615235	1257.7919921875	-1378.07080078125	273.3053283691407	1307.97998046875	-1322.642944335938	-338.3507080078126	1322.113891601563	-935.9552001953127	-182.8582153320313	1230.246948242188	-804.0905761718752	-150.9005432128907	1262.999145507813	-817.595153808594	-113.9065399169922	1220.925170898438	-791.5735473632815	-69.03098297119142	1219.815795898438	-794.129577636719	-66.92728424072267	1159.694946289063	-839.7208251953127	185.5592041015625	1295.492309570313	-897.6643676757815	196.9965515136719	1255.64111328125	-828.8716430664065	262.1632690429688	1328.249267578125	-885.759704589844	-377.0193481445313	829.0601196289065	-1167.262573242188	-377.3118591308594	864.5812988281252	-920.8416748046877	-556.9732055664064	913.893737792969	-1054.072875976563	-562.9553833007814	878.4306640625002	-1078.890258789063	-562.4264526367189	884.3868408203127	-1022.052856445313	-319.2239685058594	613.8499755859376	-1230.28173828125	-237.738021850586	587.2471313476564	-1225.727416992188	-209.1647949218751	624.6948242187501	-1220.451049804688	-215.6723175048829	533.2059936523439	-1208.926147460938	-116.666259765625	441.1878051757814	-1177.118896484375	-91.75628662109376	469.6849365234376	-1039.738891601563	-136.1389312744141	300.6371154785157	-1092.842895507813	-199.0188446044922	269.4153137207032	-1147.596435546875	-169.6199798583985	257.6912536621094	-1116.830444335938	-213.5070953369141	203.0321807861329	-1070.73828125	-332.0960998535157	109.0384674072266	-1100.115966796875	-299.1170043945313	132.7815246582032	-1008.946716308594	-406.4172363281251	104.6690139770508	-1038.273681640625	-197.4495697021485	55.63514328002931	-1016.708374023438	-188.5920104980469	54.46081161499025	-1065.928344726563	-241.8597106933594	39.96590805053712	-1116.668212890625	-236.0623474121094	650.3631591796876	-838.2794189453127	-170.7715606689453	655.7152099609376	-850.269958496094	-155.6018371582032	683.7128906250001	-860.4020996093752	-119.8252029418946	591.2962646484376	-867.197692871094	-58.00247192382814	528.3704833984376	-879.4458618164065	-45.59364318847657	566.8273315429689	-1009.719360351563	48.95820999145509	478.546356201172	-898.5213623046877	40.2482032775879	376.6640930175782	-869.1609497070315	79.69756317138673	398.2878723144532	-880.6524047851565	118.193588256836	368.1073913574219	-912.4145507812502	174.3898162841797	191.9868927001953	-906.5750732421877	195.8878326416016	227.9953613281251	-990.9689941406252	144.7877960205078	131.5592803955078	-968.6654052734377	342.5316162109376	233.9871673583985	-972.408874511719	340.6610412597657	241.7916412353516	-924.4961547851565	307.1706848144532	199.7073211669922	-877.4815673828127	
